<svg width="100%" viewBox="0 0 87 79" fill="none" xmlns="http://www.w3.org/2000/svg">
<g clip-path="url(#clip0)">
<path d="M24.093 18.6648L29.7516 24.2209L31.6525 22.3544L25.9497 16.8418L24.093 18.6648ZM35.9848 21.0522H38.6372V13.1956H35.9848V21.0522ZM19.8491 31.5566H27.8506V28.9522H19.8491V31.5566ZM44.0747 57.9478V5.2522C44.0747 2.34396 46.4619 0 49.4238 0H81.6509C84.6128 0 87 2.34396 87 5.2522V57.9478C87 60.856 84.6128 63.2 81.6509 63.2H49.4238C46.4619 63.2 44.0747 60.856 44.0747 57.9478ZM46.7714 57.9478C46.7714 59.4236 47.965 60.5522 49.4238 60.5522H81.6509C83.154 60.5522 84.3034 59.3802 84.3034 57.9478V5.2522C84.3034 3.77637 83.1098 2.6478 81.6509 2.6478H49.4238C47.9208 2.6478 46.7714 3.81978 46.7714 5.2522V57.9478Z" fill="#252AFF"/>
<path d="M52.0762 31.5566H54.7287V7.85658H52.0762V31.5566ZM68.2119 61.2467H70.8643V0.56427H68.2119V61.2467ZM76.9207 61.2467H79.5732V0.56427H76.9207V61.2467ZM59.0168 79H5.34909C2.3872 79 0 76.656 0 73.7478V42.1044C0 39.1961 2.3872 36.8956 5.34909 36.8956H59.0168C61.9787 36.8956 64.3659 39.2395 64.3659 42.1478V73.7912C64.4543 76.656 61.9787 79 59.0168 79Z" fill="#252AFF"/>
<path d="M59.0168 76.3956C60.5198 76.3956 61.6692 75.2236 61.6692 73.7912V42.1044C61.6692 40.6286 60.4756 39.5 59.0168 39.5H5.34909C3.84605 39.5 2.69666 40.672 2.69666 42.1044V73.7478C2.69666 75.2236 3.89025 76.3522 5.34909 76.3522H59.0168V76.3956Z" fill="#FFFF70"/>
<path d="M31.7408 71.1434H55.878V68.539H31.7408V71.1434ZM7.60364 52.0011H15.6052V49.3967H7.60364V52.0011ZM21.0427 52.0011H29.0442V49.3967H21.0427V52.0011ZM34.4817 52.0011H42.4832V49.3967H34.4817V52.0011ZM47.8323 52.0011H55.8338V49.3967H47.8323V52.0011ZM7.60364 71.1434H19.6722V61.2467H7.60364V71.1434Z" fill="#252AFF"/>
</g>
<defs>
<clipPath id="clip0">
<rect width="87" height="79" fill="white"/>
</clipPath>
</defs>
</svg>
